<mxfile host="Electron" agent="Mozilla/5.0 (X11; Linux x86_64) AppleWebKit/537.36 (KHTML, like Gecko) draw.io/24.7.5 Chrome/126.0.6478.183 Electron/31.3.0 Safari/537.36" version="24.7.5">
  <diagram name="Page-1" id="OZObgQdiBJWiJlyjYh1z">
    <mxGraphModel dx="1155" dy="687" grid="1" gridSize="10" guides="1" tooltips="1" connect="1" arrows="1" fold="1" page="1" pageScale="1" pageWidth="850" pageHeight="1100" math="1" shadow="0">
      <root>
        <mxCell id="0" />
        <mxCell id="1" parent="0" />
        <mxCell id="PxjpgSOqlnWbZLk2yLKU-1" value="" style="endArrow=blockThin;html=1;rounded=0;endFill=1;strokeWidth=2;" edge="1" parent="1">
          <mxGeometry width="50" height="50" relative="1" as="geometry">
            <mxPoint x="130" y="360" as="sourcePoint" />
            <mxPoint x="660" y="360" as="targetPoint" />
          </mxGeometry>
        </mxCell>
        <mxCell id="PxjpgSOqlnWbZLk2yLKU-2" value="" style="endArrow=blockThin;html=1;rounded=0;endFill=1;strokeWidth=2;" edge="1" parent="1">
          <mxGeometry width="50" height="50" relative="1" as="geometry">
            <mxPoint x="240" y="400" as="sourcePoint" />
            <mxPoint x="240" y="100" as="targetPoint" />
          </mxGeometry>
        </mxCell>
        <mxCell id="PxjpgSOqlnWbZLk2yLKU-3" value="" style="endArrow=none;html=1;rounded=0;fillColor=#e51400;strokeColor=#FF3333;strokeWidth=3;" edge="1" parent="1">
          <mxGeometry width="50" height="50" relative="1" as="geometry">
            <mxPoint x="400" y="280" as="sourcePoint" />
            <mxPoint x="600" y="280" as="targetPoint" />
          </mxGeometry>
        </mxCell>
        <mxCell id="PxjpgSOqlnWbZLk2yLKU-4" value="" style="endArrow=none;html=1;rounded=0;fillColor=#e51400;strokeColor=#FF3333;strokeWidth=4;" edge="1" parent="1" source="PxjpgSOqlnWbZLk2yLKU-14">
          <mxGeometry width="50" height="50" relative="1" as="geometry">
            <mxPoint x="240" y="160" as="sourcePoint" />
            <mxPoint x="400" y="280" as="targetPoint" />
          </mxGeometry>
        </mxCell>
        <mxCell id="PxjpgSOqlnWbZLk2yLKU-6" value="" style="endArrow=none;html=1;rounded=0;dashed=1;dashPattern=1 1;strokeColor=#919191;opacity=60;" edge="1" parent="1">
          <mxGeometry width="50" height="50" relative="1" as="geometry">
            <mxPoint x="400" y="370" as="sourcePoint" />
            <mxPoint x="400" y="140" as="targetPoint" />
          </mxGeometry>
        </mxCell>
        <mxCell id="PxjpgSOqlnWbZLk2yLKU-7" value="&lt;font style=&quot;font-size: 20px;&quot;&gt;$$V_{DS}$$&lt;/font&gt;" style="text;html=1;align=center;verticalAlign=middle;whiteSpace=wrap;rounded=0;" vertex="1" parent="1">
          <mxGeometry x="620" y="370" width="60" height="30" as="geometry" />
        </mxCell>
        <mxCell id="PxjpgSOqlnWbZLk2yLKU-8" value="&lt;font color=&quot;#ff3333&quot; style=&quot;font-size: 20px;&quot;&gt;$$g_{ds}$$&lt;/font&gt;" style="text;html=1;align=center;verticalAlign=middle;whiteSpace=wrap;rounded=0;" vertex="1" parent="1">
          <mxGeometry x="180" y="100" width="60" height="30" as="geometry" />
        </mxCell>
        <mxCell id="PxjpgSOqlnWbZLk2yLKU-9" value="&lt;font color=&quot;#67ab9f&quot; style=&quot;font-size: 12px;&quot;&gt;$$ \mu_nC_{ox}\frac{W}{L}(V_{GS}-V_{TH}-V_{DS})$$&lt;/font&gt;" style="text;html=1;align=center;verticalAlign=middle;whiteSpace=wrap;rounded=0;" vertex="1" parent="1">
          <mxGeometry x="200" y="210" width="60" height="30" as="geometry" />
        </mxCell>
        <mxCell id="PxjpgSOqlnWbZLk2yLKU-12" value="&lt;font color=&quot;#67ab9f&quot; style=&quot;font-size: 12px;&quot;&gt;$$ \mu_nC_{ox}\frac{W}{L}(V_{GS}-V_{TH})$$&lt;/font&gt;" style="text;html=1;align=center;verticalAlign=middle;whiteSpace=wrap;rounded=0;" vertex="1" parent="1">
          <mxGeometry x="300" y="110" width="60" height="30" as="geometry" />
        </mxCell>
        <mxCell id="PxjpgSOqlnWbZLk2yLKU-15" value="" style="endArrow=none;html=1;rounded=0;fillColor=#e51400;strokeColor=#FF3333;strokeWidth=4;" edge="1" parent="1" target="PxjpgSOqlnWbZLk2yLKU-14">
          <mxGeometry width="50" height="50" relative="1" as="geometry">
            <mxPoint x="240" y="160" as="sourcePoint" />
            <mxPoint x="400" y="280" as="targetPoint" />
          </mxGeometry>
        </mxCell>
        <mxCell id="PxjpgSOqlnWbZLk2yLKU-14" value="" style="shape=waypoint;sketch=0;fillStyle=solid;size=6;pointerEvents=1;points=[];fillColor=none;resizable=0;rotatable=0;perimeter=centerPerimeter;snapToPoint=1;strokeWidth=3;strokeColor=#67AB9F;opacity=80;" vertex="1" parent="1">
          <mxGeometry x="230" y="150" width="20" height="20" as="geometry" />
        </mxCell>
        <mxCell id="PxjpgSOqlnWbZLk2yLKU-16" value="" style="endArrow=classic;html=1;rounded=0;strokeColor=#67AB9F;entryX=1;entryY=0;entryDx=0;entryDy=0;entryPerimeter=0;" edge="1" parent="1">
          <mxGeometry width="50" height="50" relative="1" as="geometry">
            <mxPoint x="300" y="140" as="sourcePoint" />
            <mxPoint x="248" y="158" as="targetPoint" />
          </mxGeometry>
        </mxCell>
        <mxCell id="PxjpgSOqlnWbZLk2yLKU-17" value="" style="endArrow=none;html=1;rounded=0;fillColor=#e51400;strokeColor=#B5739D;strokeWidth=2;opacity=60;" edge="1" parent="1">
          <mxGeometry width="50" height="50" relative="1" as="geometry">
            <mxPoint x="240" y="360" as="sourcePoint" />
            <mxPoint x="400" y="160" as="targetPoint" />
          </mxGeometry>
        </mxCell>
        <mxCell id="PxjpgSOqlnWbZLk2yLKU-18" value="" style="endArrow=none;html=1;rounded=0;fillColor=#e51400;strokeColor=#B5739D;strokeWidth=2;opacity=60;" edge="1" parent="1">
          <mxGeometry width="50" height="50" relative="1" as="geometry">
            <mxPoint x="600" y="160" as="sourcePoint" />
            <mxPoint x="400" y="160" as="targetPoint" />
          </mxGeometry>
        </mxCell>
        <mxCell id="PxjpgSOqlnWbZLk2yLKU-19" value="&lt;font color=&quot;#b5739d&quot; style=&quot;font-size: 20px;&quot;&gt;$$g_{m}$$&lt;/font&gt;" style="text;html=1;align=center;verticalAlign=middle;whiteSpace=wrap;rounded=0;" vertex="1" parent="1">
          <mxGeometry x="180" y="120" width="60" height="30" as="geometry" />
        </mxCell>
        <mxCell id="PxjpgSOqlnWbZLk2yLKU-21" value="&lt;font color=&quot;#919191&quot; style=&quot;font-size: 16px;&quot;&gt;$$V_b-V_{th}$$&lt;/font&gt;" style="text;html=1;align=center;verticalAlign=middle;whiteSpace=wrap;rounded=0;" vertex="1" parent="1">
          <mxGeometry x="370" y="370" width="60" height="30" as="geometry" />
        </mxCell>
      </root>
    </mxGraphModel>
  </diagram>
</mxfile>
